<svg id="Layer_1" data-name="Layer 1" xmlns="http://www.w3.org/2000/svg" viewBox="0 0 1920 1080"><defs><style>.cls-1{fill:#fff;}</style></defs><title>svgs MARCA AE</title><g id="Bajada-Gotham_Light" data-name="Bajada-Gotham Light"><path class="cls-1" d="M562.85,656.42h-10V654.5h22v1.92H565v26.66h-2.12Z"/><path class="cls-1" d="M600.81,683.52a13.46,13.46,0,0,1-4.71-.79,10.21,10.21,0,0,1-3.72-2.37A10.71,10.71,0,0,1,590,676.5a14.84,14.84,0,0,1-.86-5.3V654.5h2.12V671q0,5.1,2.55,7.86a9.23,9.23,0,0,0,7.13,2.76,11,11,0,0,0,3.91-.66,7.82,7.82,0,0,0,3-2,9,9,0,0,0,1.91-3.26,13.92,13.92,0,0,0,.68-4.53V654.5h2.12V671a15.75,15.75,0,0,1-.86,5.41,10.77,10.77,0,0,1-2.41,3.94,10.15,10.15,0,0,1-3.69,2.41A13.35,13.35,0,0,1,600.81,683.52Z"/><path class="cls-1" d="M649.15,654.5h2l11.47,16.9,11.47-16.9h2v28.58H674V658.26l-11.3,16.45h-.17l-11.3-16.45v24.82h-2Z"/><path class="cls-1" d="M692.74,654.5h20.33v1.92H694.86v11.31h16.37v1.92H694.86v11.51h18.42v1.92H692.74Z"/><path class="cls-1" d="M734.18,683.48a8.78,8.78,0,0,1-5.27-1.49,11.48,11.48,0,0,1-3.39-3.85l1.76-1.11a14.62,14.62,0,0,0,1.36,2,7.44,7.44,0,0,0,1.56,1.43,6.15,6.15,0,0,0,1.83.86,8.28,8.28,0,0,0,2.27.29,6.3,6.3,0,0,0,2.45-.49,5.52,5.52,0,0,0,2-1.45,6.93,6.93,0,0,0,1.3-2.39,10.41,10.41,0,0,0,.47-3.31V654.5h2.13v19.27a12.17,12.17,0,0,1-.72,4.37,8.62,8.62,0,0,1-1.9,3.06,7.47,7.47,0,0,1-2.63,1.71A8.87,8.87,0,0,1,734.18,683.48Z"/><path class="cls-1" d="M771.89,683.57a14,14,0,0,1-5.89-1.21,14.2,14.2,0,0,1-4.52-3.22,14.42,14.42,0,0,1-2.89-4.68,15.44,15.44,0,0,1-1-5.59v-.08a15.18,15.18,0,0,1,1-5.61,14.57,14.57,0,0,1,2.92-4.72,13.78,13.78,0,0,1,4.53-3.24,15,15,0,0,1,11.79,0,13.87,13.87,0,0,1,4.53,3.22,14.34,14.34,0,0,1,2.9,4.67,15.49,15.49,0,0,1,1,5.6s0,0,0,.08a15.18,15.18,0,0,1-1,5.61,14.68,14.68,0,0,1-2.92,4.72,13.76,13.76,0,0,1-4.55,3.24A14.24,14.24,0,0,1,771.89,683.57Zm.09-1.92a11.7,11.7,0,0,0,8.71-3.74,12.39,12.39,0,0,0,2.51-4.06,13.67,13.67,0,0,0,.9-5v-.08a13.62,13.62,0,0,0-.92-5,12.66,12.66,0,0,0-2.53-4.08,11.94,11.94,0,0,0-3.86-2.76,11.94,11.94,0,0,0-13.61,2.71,12.54,12.54,0,0,0-2.51,4.07,13.67,13.67,0,0,0-.9,5v.08a13.66,13.66,0,0,0,.92,5,12.7,12.7,0,0,0,2.53,4.08,11.84,11.84,0,0,0,3.86,2.76A11.68,11.68,0,0,0,772,681.65Z"/><path class="cls-1" d="M801.69,654.5h12a13.35,13.35,0,0,1,4.7.76,9.19,9.19,0,0,1,3.35,2.06,7.25,7.25,0,0,1,1.59,2.39,7.48,7.48,0,0,1,.57,2.91v.09a7.78,7.78,0,0,1-.63,3.2,7.37,7.37,0,0,1-1.76,2.43,9,9,0,0,1-2.65,1.65,13.35,13.35,0,0,1-3.33.88L825,683.08h-2.69l-9.11-11.84h-9.34v11.84h-2.13Zm11.76,14.82a11.76,11.76,0,0,0,3.33-.45,8.08,8.08,0,0,0,2.63-1.29,6.1,6.1,0,0,0,1.73-2.05,5.76,5.76,0,0,0,.64-2.76v-.08a5.52,5.52,0,0,0-2.15-4.59,9.61,9.61,0,0,0-6.06-1.68h-9.75v12.9Z"/><path class="cls-1" d="M857.33,654.5h2.37l11.18,26.29,11.23-26.29h2.24l-12.57,28.78H869.9Z"/><path class="cls-1" d="M898.56,654.5h20.33v1.92H900.68v11.31h16.37v1.92H900.68v11.51h18.41v1.92H898.56Z"/><path class="cls-1" d="M934.07,654.5h12a13.34,13.34,0,0,1,4.69.76,9.11,9.11,0,0,1,3.35,2.06,7.25,7.25,0,0,1,1.59,2.39,7.48,7.48,0,0,1,.57,2.91v.09a7.78,7.78,0,0,1-.63,3.2,7.23,7.23,0,0,1-1.76,2.43,9,9,0,0,1-2.65,1.65,13.35,13.35,0,0,1-3.33.88l9.43,12.21h-2.69l-9.1-11.84H936.2v11.84h-2.13Zm11.76,14.82a11.76,11.76,0,0,0,3.33-.45,8,8,0,0,0,2.63-1.29,6.13,6.13,0,0,0,1.74-2.05,5.88,5.88,0,0,0,.63-2.76v-.08A5.54,5.54,0,0,0,952,658.1a9.64,9.64,0,0,0-6.07-1.68H936.2v12.9Z"/><path class="cls-1" d="M981.43,683.48a16.07,16.07,0,0,1-6.19-1.14,18.9,18.9,0,0,1-5.33-3.43l1.39-1.59a20.4,20.4,0,0,0,2.35,1.9,13.3,13.3,0,0,0,2.39,1.3,12.77,12.77,0,0,0,2.57.78,15,15,0,0,0,2.94.27,9.85,9.85,0,0,0,2.94-.43,6.84,6.84,0,0,0,2.28-1.19,5.37,5.37,0,0,0,1.47-1.79,4.86,4.86,0,0,0,.53-2.27v-.08a5.67,5.67,0,0,0-.34-2,3.93,3.93,0,0,0-1.27-1.63,9,9,0,0,0-2.47-1.33,24.29,24.29,0,0,0-4-1.08,28.34,28.34,0,0,1-4.41-1.25,10.86,10.86,0,0,1-3-1.67,5.74,5.74,0,0,1-1.69-2.23,7.3,7.3,0,0,1-.53-2.89v-.09a6.51,6.51,0,0,1,.69-3,7.42,7.42,0,0,1,1.92-2.38,9.24,9.24,0,0,1,2.9-1.6,11.3,11.3,0,0,1,3.67-.57,15.2,15.2,0,0,1,5.37.86,16,16,0,0,1,4.43,2.61l-1.35,1.68a12.29,12.29,0,0,0-8.53-3.23,9,9,0,0,0-2.88.43,7.18,7.18,0,0,0-2.2,1.16,5.24,5.24,0,0,0-1.41,1.72,4.55,4.55,0,0,0-.49,2.08v.08a5.82,5.82,0,0,0,.35,2.06,4,4,0,0,0,1.26,1.68,9.12,9.12,0,0,0,2.55,1.36,29.78,29.78,0,0,0,4.17,1.15q5,1,7.18,2.88a6.19,6.19,0,0,1,2.21,5v.08a7,7,0,0,1-.72,3.16,7.26,7.26,0,0,1-2,2.47,9.12,9.12,0,0,1-3,1.59A12.13,12.13,0,0,1,981.43,683.48Z"/><path class="cls-1" d="M1006.33,654.5h2.12v28.58h-2.12Z"/><path class="cls-1" d="M1038.45,683.57a13.94,13.94,0,0,1-10.41-4.43,14.25,14.25,0,0,1-2.89-4.68,15.24,15.24,0,0,1-1-5.59v-.08a15.19,15.19,0,0,1,1.05-5.61,14.72,14.72,0,0,1,2.91-4.72,14.35,14.35,0,0,1,20.86,0,14.34,14.34,0,0,1,2.9,4.67,15.49,15.49,0,0,1,1,5.6s0,0,0,.08a15.18,15.18,0,0,1-1,5.61,14.86,14.86,0,0,1-2.92,4.72,13.76,13.76,0,0,1-4.55,3.24A14.24,14.24,0,0,1,1038.45,683.57Zm.08-1.92a11.7,11.7,0,0,0,8.72-3.74,12.56,12.56,0,0,0,2.51-4.06,13.67,13.67,0,0,0,.9-5v-.08a13.62,13.62,0,0,0-.92-5,12.66,12.66,0,0,0-2.53-4.08,11.94,11.94,0,0,0-3.86-2.76,12.34,12.34,0,0,0-9.78,0,11.84,11.84,0,0,0-3.83,2.73,12.54,12.54,0,0,0-2.51,4.07,13.67,13.67,0,0,0-.9,5v.08a13.46,13.46,0,0,0,.92,5,12.7,12.7,0,0,0,2.53,4.08,11.84,11.84,0,0,0,3.86,2.76A11.67,11.67,0,0,0,1038.53,681.65Zm2.9-35.23,2.49,1.22-4.37,4.21h-1.71Z"/><path class="cls-1" d="M1068.25,654.5h2L1090,679.36V654.5h2v28.58h-1.59l-20.13-25.39v25.39h-2Z"/></g><polygon class="cls-1" points="744.72 422.58 715.87 422.58 715.87 595.17 808.57 595.17 808.57 566.33 744.72 566.33 744.72 422.58"/><polygon class="cls-1" points="817.7 448.96 853.95 448.96 853.95 595.17 882.55 595.17 882.55 448.96 918.79 448.96 918.79 422.58 817.7 422.58 817.7 448.96"/><path class="cls-1" d="M1213.93,472.88c0-50.3-57.7-50.3-57.7-50.3h-57.45V595.17h28.85v-72h23.42l33,72h31.81l-35.26-76.43C1196.17,513.07,1213.93,500.74,1213.93,472.88Zm-57.7,21.7h-28.6V451.43h28.6s28.85,0,28.85,21.45C1185.08,494.58,1156.23,494.58,1156.23,494.58Z"/><path class="cls-1" d="M621.68,417.65,552.89,595.17H584l7.39-20H652l7.64,20h31.07Zm-21,132.65,21-59.92,21,59.92Z"/><rect class="cls-1" x="600.97" y="395.49" width="41.67" height="14.12"/><path class="cls-1" d="M1484.5,497.43v25.35h45.7v26.75a56.42,56.42,0,0,1-43,19.4c-36.37,0-57.23-21.75-57.23-59.69,0-35.14,23.53-59.68,57.23-59.68a57.55,57.55,0,0,1,37,13.47l3.69,3.09L1548.06,446l-4.14-3.7a85.9,85.9,0,0,0-117.5,3.57c-16.26,16.42-25.22,38.94-25.22,63.4,0,26.86,8.25,49.46,23.84,65.34,14.64,14.92,35.42,23.13,58.49,23.13,20.75,0,35.37-5.35,48.88-17.91l1.47,15.7H1559V497.43Z"/><path class="cls-1" d="M1743.54,449.45C1728.16,430.85,1706,421,1679.31,421s-49.06,9.82-64.51,28.42c-13.26,15.95-20.56,37.21-20.56,59.88,0,23.1,7.55,44.62,21.26,60.61,15.45,18,37.51,27.54,63.81,27.54s48.14-9.52,63.53-27.54c13.64-16,21.16-37.51,21.16-60.61C1764,486.66,1756.73,465.39,1743.54,449.45Zm-64.23-.39c17.24,0,31.72,6.52,41.86,18.85,9,10.93,13.95,25.66,13.95,41.46,0,30-19.17,60.3-55.81,60.3-17.23,0-31.69-6.51-41.81-18.82-9-10.91-13.92-25.62-13.92-41.41C1623.58,479.44,1642.72,449.06,1679.31,449.06Z"/><polygon class="cls-1" points="1337.38 494.57 1337.38 494.58 1271.87 494.58 1271.87 523.18 1337.38 523.18 1337.38 566.33 1251.09 566.33 1251.09 595.17 1366.23 595.17 1366.23 422.58 1251.09 422.58 1251.09 451.43 1337.38 451.43 1337.38 494.57"/><polygon class="cls-1" points="977.23 523.18 1042.74 523.18 1042.74 494.58 977.23 494.58 977.23 451.43 1063.52 451.43 1063.52 422.58 948.38 422.58 948.38 595.17 1063.52 595.17 1063.52 566.33 977.23 566.33 977.23 523.18"/><polygon class="cls-1" points="377.3 439.24 327.06 439.24 327.06 547.09 288.14 547.09 288.14 439.24 237.89 439.24 237.89 597.77 307.62 684.51 377.3 597.8 377.3 439.24"/><rect class="cls-1" x="156" y="395.49" width="49.86" height="202.28"/><rect class="cls-1" x="408.52" y="395.49" width="50.68" height="202.28"/></svg>