<?xml version="1.0" encoding="utf-8"?>
<!-- Generator: Adobe Illustrator 24.2.3, SVG Export Plug-In . SVG Version: 6.00 Build 0)  -->
<svg version="1.1" id="Layer_1" xmlns="http://www.w3.org/2000/svg" xmlns:xlink="http://www.w3.org/1999/xlink" x="0px" y="0px"
	 viewBox="0 0 1920 272.5" style="enable-background:new 0 0 1920 272.5;" xml:space="preserve">
<style type="text/css">
	.st0{fill:#FFFFFF;}
</style>
<g>
	<g>
		<polygon class="st0" points="682.1,56.4 651.5,56.4 651.5,239.6 749.9,239.6 749.9,209 682.1,209 		"/>
		<polygon class="st0" points="759.6,84.4 798,84.4 798,239.6 828.4,239.6 828.4,84.4 866.9,84.4 866.9,56.4 759.6,56.4 		"/>
		<path class="st0" d="M1180.1,109.8c0-53.4-61.2-53.4-61.2-53.4h-61v183.2h30.6v-76.4h24.9l35.1,76.4h33.8l-37.4-81.1
			C1161.3,152.5,1180.1,139.4,1180.1,109.8z M1118.9,132.8h-30.4V87h30.4c0,0,30.6,0,30.6,22.8
			C1149.5,132.8,1118.9,132.8,1118.9,132.8z"/>
		<path class="st0" d="M568.4,94.6L568.4,94.6l-7-18.1l0,0l-9.9-25.4l-14.2,36.6l0,0l-5.8,15l0,0l-53,136.8h33l7.9-21.2h64.4
			l8.1,21.2h33L568.4,94.6z M529.3,192l22.2-63.6l22.2,63.6H529.3z"/>
		<g>
			<polygon class="st0" points="308.2,76.1 273.6,76.1 273.6,150.3 246.9,150.3 246.9,76.1 212.3,76.1 212.3,150.3 212.3,150.3 
				212.3,185.1 212.3,185.1 260.3,244.7 308.2,185.1 			"/>
			<rect x="156" y="46" class="st0" width="34.3" height="139.1"/>
			<polygon class="st0" points="329.6,46 329.6,150.3 329.6,150.3 329.6,185.1 364.5,185.1 364.5,46 			"/>
		</g>
		<rect x="529.5" y="27.7" class="st0" width="44.2" height="15"/>
		<g>
			<path class="st0" d="M1472.9,135.9h-5.6v5.6v15.7v5.6h5.6h42.9v28.4c-11.7,13.3-27.9,20.6-45.6,20.6c-38.6,0-60.7-23.1-60.7-63.4
				c0-37.3,25-63.4,60.7-63.4c14.4,0,28.3,5.1,39.3,14.3l3.9,3.3l3.6-3.6l13.6-13.6l4.2-4.2l-4.4-3.9
				c-16.5-14.7-37.8-22.8-60.2-22.8c-24.6,0-47.5,9.4-64.5,26.6c-17.3,17.4-26.8,41.3-26.8,67.3c0,28.5,8.8,52.5,25.3,69.4
				c15.5,15.8,37.6,24.6,62.1,24.6c22,0,37.5-5.7,51.9-19l1.1,11.6l0.5,5.1h5.1h16h5.6v-5.6v-93v-5.6h-5.6L1472.9,135.9
				L1472.9,135.9z"/>
			<path class="st0" d="M1742.3,84.9c-16.3-19.7-39.9-30.2-68.2-30.2c-28.4,0-52.1,10.4-68.5,30.2c-14.1,16.9-21.8,39.5-21.8,63.6
				c0,24.5,8,47.4,22.6,64.3c16.4,19.1,39.8,29.2,67.7,29.2c27.8,0,51.1-10.1,67.4-29.2c14.5-17,22.5-39.8,22.5-64.3
				C1764,124.4,1756.3,101.9,1742.3,84.9z M1674.1,84.5c18.3,0,33.7,6.9,44.4,20c9.6,11.6,14.8,27.2,14.8,44c0,31.8-20.4,64-59.2,64
				c-18.3,0-33.6-6.9-44.4-20c-9.5-11.6-14.8-27.2-14.8-44C1615,116.8,1635.3,84.5,1674.1,84.5z"/>
			<polygon class="st0" points="1311.2,128 1311.2,132.8 1311.2,132.8 1241.6,132.8 1241.6,163.2 1311.2,163.2 1311.2,173.2 
				1311.2,209 1219.6,209 1219.6,239.6 1341.8,239.6 1341.8,56.4 1219.6,56.4 1219.6,87 1311.2,87 			"/>
		</g>
		<polygon class="st0" points="928.9,168 928.9,163.2 928.9,163.2 998.4,163.2 998.4,132.8 928.9,132.8 928.9,122.8 928.9,87 
			1020.5,87 1020.5,56.4 898.3,56.4 898.3,239.6 1020.5,239.6 1020.5,209 928.9,209 		"/>
	</g>
</g>
</svg>
