<?xml version="1.0" encoding="utf-8"?>
<!-- Generator: Adobe Illustrator 24.2.1, SVG Export Plug-In . SVG Version: 6.00 Build 0)  -->
<svg version="1.1" id="Layer_1" xmlns="http://www.w3.org/2000/svg" xmlns:xlink="http://www.w3.org/1999/xlink" x="0px" y="0px"
	 viewBox="0 0 1920 1080" style="enable-background:new 0 0 1920 1080;" xml:space="preserve">
<g id="Bajada-Gotham_Light">
	<path d="M607.4,908.9h-13.5v-2.6h29.9v2.6h-13.5v36.2h-2.9V908.9z"/>
	<path d="M659,945.8c-2.2,0-4.3-0.3-6.4-1.1c-1.9-0.7-3.6-1.8-5-3.2c-1.5-1.5-2.6-3.3-3.3-5.2c-0.8-2.3-1.2-4.8-1.2-7.2v-22.7h2.9
		v22.4c0,4.6,1.2,8.2,3.5,10.7c2.3,2.5,5.5,3.7,9.7,3.7c1.8,0,3.6-0.3,5.3-0.9c1.5-0.6,2.9-1.5,4.1-2.7c1.2-1.3,2.1-2.8,2.6-4.4
		c0.6-2,0.9-4.1,0.9-6.2v-22.7h2.9v22.3c0,2.5-0.3,5-1.2,7.3c-0.7,2-1.8,3.8-3.3,5.3c-1.4,1.4-3.1,2.6-5,3.3
		C663.4,945.4,661.2,945.8,659,945.8z"/>
	<path d="M724.6,906.3h2.7l15.6,23l15.6-23h2.7v38.8h-2.9v-33.7L743,933.8h-0.2l-15.4-22.3v33.7h-2.8L724.6,906.3z"/>
	<path d="M783.8,906.3h27.6v2.6h-24.7v15.4H809v2.6h-22.3v15.6h25v2.6h-27.9V906.3z"/>
	<path d="M840.1,945.7c-2.5,0.1-5-0.6-7.2-2c-1.9-1.4-3.5-3.2-4.6-5.2l2.4-1.5c0.5,0.9,1.2,1.8,1.8,2.7c0.6,0.7,1.3,1.4,2.1,1.9
		c0.8,0.5,1.6,0.9,2.5,1.2c1,0.3,2,0.4,3.1,0.4c1.1,0,2.3-0.2,3.3-0.7c1-0.5,2-1.1,2.7-2c0.8-1,1.4-2.1,1.8-3.3
		c0.5-1.5,0.7-3,0.6-4.5v-26.4h2.9v26.2c0,2-0.3,4-1,5.9c-0.6,1.6-1.4,3-2.6,4.2c-1,1-2.2,1.8-3.6,2.3
		C843.1,945.4,841.6,945.7,840.1,945.7z"/>
	<path d="M891.3,945.8c-5.3,0.1-10.5-2.1-14.1-6c-1.7-1.8-3-4-3.9-6.3c-0.9-2.4-1.4-5-1.4-7.6v-0.1c0-2.6,0.5-5.2,1.4-7.6
		c0.9-2.4,2.3-4.5,4-6.4c1.7-1.9,3.8-3.4,6.2-4.4c5.1-2.2,10.9-2.2,16,0c2.3,1,4.4,2.5,6.2,4.4c1.7,1.8,3,4,3.9,6.3
		c0.9,2.4,1.4,5,1.4,7.6c0,0,0,0.1,0,0.1c0,0,0,0,0,0c0,2.6-0.5,5.2-1.4,7.6c-0.9,2.4-2.3,4.5-4,6.4c-1.7,1.9-3.8,3.4-6.2,4.4
		C896.8,945.3,894.1,945.8,891.3,945.8z M891.5,943.2c4.5,0.1,8.8-1.8,11.8-5.1c1.5-1.6,2.6-3.5,3.4-5.5c0.8-2.2,1.2-4.5,1.2-6.8
		v-0.1c0-2.3-0.4-4.6-1.3-6.8c-0.8-2.1-2-3.9-3.4-5.5c-1.5-1.6-3.3-2.9-5.2-3.7c-6.3-2.9-13.8-1.4-18.5,3.7
		c-1.5,1.6-2.6,3.5-3.4,5.5c-0.8,2.2-1.2,4.5-1.2,6.8v0.1c0,2.3,0.4,4.6,1.3,6.8c0.8,2,2,3.9,3.4,5.5c1.5,1.6,3.3,2.9,5.2,3.8
		C886.9,942.8,889.2,943.2,891.5,943.2z"/>
	<path d="M931.8,906.3h16.3c2.2,0,4.3,0.3,6.4,1c1.7,0.6,3.3,1.5,4.5,2.8c1.9,1.9,3,4.5,2.9,7.2v0.1c0,1.5-0.3,3-0.9,4.3
		c-0.6,1.3-1.4,2.4-2.4,3.3c-1.1,1-2.3,1.7-3.6,2.2c-1.4,0.6-3,1-4.5,1.2l12.8,16.6h-3.7L947.4,929h-12.7v16.1h-2.9V906.3z
		 M947.8,926.5c1.5,0,3-0.2,4.5-0.6c1.3-0.4,2.5-1,3.6-1.8c1-0.7,1.8-1.7,2.4-2.8c0.6-1.2,0.9-2.5,0.8-3.8v-0.1
		c0.1-2.4-1-4.7-2.9-6.2c-1.9-1.5-4.7-2.3-8.2-2.3h-13.3v17.5H947.8z"/>
	<path d="M1007.4,906.3h3.2l15.2,35.7l15.2-35.7h3l-17,39.1h-2.6L1007.4,906.3z"/>
	<path d="M1063.4,906.3h27.6v2.6h-24.7v15.4h22.2v2.6h-22.2v15.6h25v2.6h-27.9L1063.4,906.3z"/>
	<path d="M1111.6,906.3h16.3c2.2,0,4.3,0.3,6.4,1c1.7,0.6,3.2,1.5,4.5,2.8c0.9,0.9,1.7,2,2.2,3.2c0.5,1.3,0.8,2.6,0.8,4v0.1
		c0,1.5-0.3,3-0.9,4.3c-0.6,1.3-1.4,2.4-2.4,3.3c-1.1,0.9-2.3,1.7-3.6,2.2c-1.4,0.6-3,1-4.5,1.2l12.8,16.6h-3.7l-12.4-16.1h-12.7
		v16.1h-2.9L1111.6,906.3z M1127.6,926.5c1.5,0,3.1-0.2,4.5-0.6c1.3-0.4,2.5-1,3.6-1.8c1-0.7,1.8-1.7,2.4-2.8
		c0.6-1.2,0.9-2.5,0.9-3.8v-0.1c0.1-2.4-1-4.7-2.9-6.2c-1.9-1.5-4.7-2.3-8.2-2.3h-13.3v17.5H1127.6z"/>
	<path d="M1175.9,945.7c-2.9,0-5.7-0.5-8.4-1.6c-2.7-1.1-5.1-2.7-7.2-4.7l1.9-2.2c1,0.9,2.1,1.8,3.2,2.6c1,0.7,2.1,1.3,3.2,1.8
		c1.1,0.5,2.3,0.8,3.5,1c1.3,0.2,2.7,0.4,4,0.4c1.4,0,2.7-0.2,4-0.6c1.1-0.3,2.2-0.9,3.1-1.6c0.8-0.7,1.5-1.5,2-2.4
		c0.5-1,0.7-2,0.7-3.1v-0.1c0-0.9-0.1-1.9-0.5-2.8c-0.4-0.9-1-1.6-1.7-2.2c-1-0.8-2.2-1.4-3.3-1.8c-1.8-0.6-3.6-1.1-5.4-1.5
		c-2-0.4-4.1-1-6-1.7c-1.5-0.5-2.9-1.3-4.1-2.3c-1-0.8-1.8-1.8-2.3-3c-0.5-1.3-0.7-2.6-0.7-3.9V916c0-1.4,0.3-2.8,0.9-4
		c0.6-1.2,1.5-2.3,2.6-3.2c1.2-1,2.5-1.7,3.9-2.2c1.6-0.5,3.3-0.8,5-0.8c2.5-0.1,5,0.3,7.3,1.2c2.2,0.9,4.2,2,6,3.5l-1.8,2.3
		c-3.2-2.9-7.3-4.5-11.6-4.4c-1.3,0-2.6,0.2-3.9,0.6c-1.1,0.3-2.1,0.9-3,1.6c-0.8,0.6-1.5,1.4-1.9,2.3c-0.4,0.9-0.7,1.8-0.7,2.8v0.1
		c0,1,0.1,1.9,0.5,2.8c0.4,0.9,1,1.7,1.7,2.3c1.1,0.8,2.2,1.4,3.5,1.9c1.8,0.7,3.7,1.2,5.7,1.5c4.5,0.9,7.8,2.2,9.8,3.9
		c2,1.7,3.1,4.2,3,6.8v0.1c0,1.5-0.3,3-1,4.3c-0.6,1.3-1.5,2.4-2.7,3.3c-1.2,1-2.6,1.7-4.1,2.2
		C1179.4,945.5,1177.6,945.7,1175.9,945.7z"/>
	<path d="M1209.7,906.3h2.9v38.8h-2.9V906.3z"/>
	<path d="M1253.3,945.8c-5.3,0.1-10.5-2.1-14.1-6c-1.7-1.8-3-4-3.9-6.3c-0.9-2.4-1.4-5-1.4-7.6v-0.1c0-2.6,0.5-5.2,1.4-7.6
		c0.9-2.4,2.3-4.5,4-6.4c1.7-1.9,3.8-3.4,6.2-4.4c5.1-2.2,10.9-2.2,16,0c2.3,1,4.4,2.5,6.2,4.4c1.7,1.8,3.1,4,3.9,6.3
		c0.9,2.4,1.4,5,1.4,7.6c0,0,0,0.1,0,0.1c0,2.6-0.5,5.2-1.4,7.6c-0.9,2.4-2.3,4.5-4,6.4c-1.7,1.9-3.8,3.4-6.2,4.4
		C1258.8,945.3,1256.1,945.8,1253.3,945.8z M1253.5,943.2c4.5,0.1,8.8-1.8,11.8-5.1c1.5-1.6,2.6-3.5,3.4-5.5
		c0.8-2.2,1.2-4.5,1.2-6.8v-0.1c0-2.3-0.4-4.6-1.2-6.8c-0.8-2-2-3.9-3.4-5.5c-1.5-1.6-3.3-2.9-5.2-3.7c-4.2-1.8-9-1.8-13.3,0
		c-2,0.9-3.7,2.1-5.2,3.7c-1.5,1.6-2.6,3.5-3.4,5.5c-0.8,2.2-1.2,4.5-1.2,6.8v0.1c0,2.3,0.4,4.6,1.3,6.8c0.8,2,2,3.9,3.4,5.5
		c1.5,1.6,3.3,2.9,5.2,3.8C1248.9,942.8,1251.2,943.2,1253.5,943.2z M1257.4,895.4l3.4,1.7l-5.9,5.7h-2.3L1257.4,895.4z"/>
	<path d="M1293.8,906.3h2.7l26.8,33.8v-33.8h2.8v38.8h-2.2l-27.3-34.5v34.5h-2.8V906.3z"/>
</g>
<polygon points="398.1,564.8 359,564.8 359,799.2 484.9,799.2 484.9,760 398.1,760 "/>
<polygon points="497.2,600.6 546.5,600.6 546.5,799.2 585.3,799.2 585.3,600.6 634.5,600.6 634.5,564.8 497.2,564.8 "/>
<path d="M1035.3,633.1c0-68.3-78.4-68.3-78.4-68.3h-78v234.4h39.2v-97.8H950l44.9,97.8h43.1l-47.9-103.8
	C1011.2,687.7,1035.3,670.9,1035.3,633.1z M957,662.5h-38.8v-58.6H957c0,0,39.2,0,39.2,29.1C996.2,662.5,957,662.5,957,662.5z"/>
<path d="M231,558.1l-93.4,241.1h42.2l10-27.1h82.4l10.4,27.1h42.2L231,558.1z M202.6,738.2l28.4-81.4l28.5,81.4H202.6z"/>
<rect x="202.9" y="528" width="56.6" height="19.2"/>
<path d="M1402.8,666.4v34.4h62.1v36.3c-14.7,16.9-36,26.5-58.4,26.3c-49.4,0-77.7-29.5-77.7-81.1c0-47.7,32-81.1,77.7-81.1
	c18.4,0,36.2,6.5,50.3,18.3l5,4.2l27.4-27.4l-5.6-5c-21.2-18.9-48.6-29.3-77-29.2c-31.5,0-60.8,12.1-82.6,34
	c-22.1,22.3-34.3,52.9-34.3,86.1c0,36.5,11.2,67.2,32.4,88.7c19.9,20.3,48.1,31.4,79.4,31.4c28.2,0,48-7.3,66.4-24.3l2,21.3h34.1
	V666.4H1402.8z"/>
<path d="M1754.6,601.3c-20.9-25.3-51-38.6-87.2-38.6s-66.6,13.3-87.6,38.6c-18,21.7-27.9,50.5-27.9,81.3c0,31.4,10.3,60.6,28.9,82.3
	c21,24.5,51,37.4,86.7,37.4c35.6,0,65.4-12.9,86.3-37.4c18.5-21.7,28.7-50.9,28.7-82.3C1782.4,651.8,1772.5,622.9,1754.6,601.3z
	 M1667.4,600.7c23.4,0,43.1,8.8,56.8,25.6c12.2,14.9,19,34.8,19,56.3c0,40.7-26,81.9-75.8,81.9c-23.4,0-43-8.8-56.8-25.5
	c-12.2-14.8-18.9-34.8-18.9-56.2C1591.7,642,1617.7,600.7,1667.4,600.7z"/>
<polygon points="1203,662.5 1203,662.5 1114,662.5 1114,701.4 1203,701.4 1203,760 1085.8,760 1085.8,799.2 1242.2,799.2 
	1242.2,564.8 1085.8,564.8 1085.8,603.9 1203,603.9 "/>
<polygon points="713.9,701.4 802.9,701.4 802.9,662.5 713.9,662.5 713.9,603.9 831.1,603.9 831.1,564.8 674.7,564.8 674.7,799.2 
	831.1,799.2 831.1,760 713.9,760 "/>
<polygon points="1021.3,172.7 977.1,172.7 977.1,267.6 942.9,267.6 942.9,172.7 898.7,172.7 898.7,312.1 960,388.5 1021.3,312.2 "/>
<rect x="826.6" y="134.2" width="43.9" height="178"/>
<rect x="1048.8" y="134.2" width="44.6" height="178"/>
</svg>
