<?xml version="1.0" encoding="utf-8"?>
<!-- Generator: Adobe Illustrator 25.0.1, SVG Export Plug-In . SVG Version: 6.00 Build 0)  -->
<svg version="1.1" id="Layer_1" xmlns="http://www.w3.org/2000/svg" xmlns:xlink="http://www.w3.org/1999/xlink" x="0px" y="0px"
	 viewBox="0 0 1366 768" style="enable-background:new 0 0 1366 768;" xml:space="preserve">
<style type="text/css">
	.st0{fill-rule:evenodd;clip-rule:evenodd;fill:#FFFFFF;}
	.st1{fill:#FFFFFF;}
	.st2{font-family:'Gotham-Medium';}
	.st3{font-size:49.648px;}
</style>
<g>
	<g>
		<path class="st0" d="M682.9,249.5c-44,0-79.6,35.7-79.6,79.6c0,35.2,22.8,65,54.5,75.6c4,0.7,5.4-1.7,5.4-3.8
			c0-1.9-0.1-8.2-0.1-14.8c-22.2,4.8-26.8-9.4-26.8-9.4c-3.6-9.2-8.8-11.7-8.8-11.7c-7.2-4.9,0.5-4.8,0.5-4.8
			c8,0.6,12.2,8.2,12.2,8.2c7.1,12.2,18.6,8.7,23.2,6.6c0.7-5.1,2.8-8.7,5.1-10.6c-17.7-2-36.3-8.8-36.3-39.4
			c0-8.7,3.1-15.8,8.2-21.4c-0.8-2-3.6-10.1,0.8-21.1c0,0,6.7-2.1,21.9,8.2c6.4-1.8,13.2-2.6,19.9-2.7c6.8,0,13.6,0.9,20,2.7
			c15.2-10.3,21.9-8.2,21.9-8.2c4.3,11,1.6,19.1,0.8,21.1c5.1,5.6,8.2,12.7,8.2,21.4c0,30.6-18.6,37.3-36.4,39.3
			c2.9,2.5,5.4,7.3,5.4,14.7c0,10.7-0.1,19.2-0.1,21.9c0,2.1,1.4,4.6,5.5,3.8c31.6-10.5,54.4-40.4,54.4-75.6
			C762.5,285.1,726.9,249.5,682.9,249.5z"/>
		<path class="st1" d="M633.4,363.8c-0.2,0.4-0.8,0.5-1.4,0.2c-0.6-0.3-0.9-0.8-0.7-1.2c0.2-0.4,0.8-0.5,1.4-0.2
			C633.3,362.9,633.6,363.4,633.4,363.8L633.4,363.8z"/>
		<path class="st1" d="M636.7,367.4c-0.4,0.4-1.1,0.2-1.6-0.4s-0.6-1.3-0.2-1.7c0.4-0.4,1.1-0.2,1.6,0.4
			C636.9,366.3,637,367.1,636.7,367.4L636.7,367.4z"/>
		<path class="st1" d="M639.8,372c-0.5,0.3-1.3,0-1.8-0.7s-0.5-1.6,0-1.9s1.3,0,1.8,0.7C640.3,370.8,640.3,371.7,639.8,372
			L639.8,372z"/>
		<path class="st1" d="M644.1,376.4c-0.4,0.5-1.4,0.4-2-0.3c-0.7-0.6-0.9-1.6-0.5-2c0.4-0.5,1.4-0.3,2.1,0.3
			C644.3,375,644.6,376,644.1,376.4L644.1,376.4z"/>
		<path class="st1" d="M650,379c-0.2,0.6-1.1,0.9-2,0.6s-1.5-1-1.3-1.6s1.1-0.9,2-0.6C649.6,377.6,650.2,378.4,650,379L650,379z"/>
		<path class="st1" d="M656.5,379.5c0,0.7-0.7,1.2-1.7,1.2s-1.7-0.5-1.7-1.2s0.7-1.2,1.7-1.2C655.8,378.3,656.5,378.8,656.5,379.5
			L656.5,379.5z"/>
		<path class="st1" d="M662.6,378.4c0.1,0.6-0.5,1.3-1.5,1.5c-0.9,0.2-1.8-0.2-1.9-0.9c-0.1-0.7,0.6-1.3,1.5-1.5
			C661.6,377.4,662.5,377.8,662.6,378.4L662.6,378.4z"/>
	</g>
	<text transform="matrix(1 0 0 1 515.5881 504.8609)" class="st1 st2 st3">Ver código</text>
</g>
</svg>
