<svg id="Layer_1" data-name="Layer 1" xmlns="http://www.w3.org/2000/svg" viewBox="0 0 200 200"><defs><style>.cls-1{fill:#343434;}</style></defs><path class="cls-1" d="M150.1477,49.2335c7.002,0,14.0046.0455,21.0057-.0345,1.5938-.0182,2.2837.2672,2.2015,2.0634-.1506,3.2929-.0969,6.5989-.0172,9.8968.0333,1.3748-.2144,1.99-1.8162,1.9832q-21.368-.0934-42.7365-.01c-1.3339.004-1.8219-.3227-1.7834-1.73.0948-3.4582.12-6.9241-.0092-10.38-.0585-1.5638.4783-1.8377,1.908-1.823C135.9822,49.2732,143.0651,49.2335,150.1477,49.2335Z"/><path class="cls-1" d="M85.1047,94.0574H83.3362a3.2009,3.2009,0,0,1,2.2426-.8145Z"/><path class="cls-1" d="M100.5479,105.4624c-2.87-6.7495-8.04-10.6577-15.4431-11.4051a1.1263,1.1263,0,0,0-1.16-.122c.4752.0154,1.0049-.4447,1.6341-.6918,4.8691-1.5086,8.8268-4.22,11.3391-8.7569A23.3424,23.3424,0,0,0,99.65,73.134c.085-11.0315-3.4948-20.1682-13.409-26.0437-5.9442-3.5222-12.5362-4.4225-19.2576-4.45-18.4318-.0787-36.8644-.0015-55.2965-.0695-1.7565-.0061-2.0877.5636-2.0854,2.1835Q9.6662,98.7222,9.5883,152.69c-.0035,1.8839.5659,2.2174,2.305,2.2112q26.1994-.0972,52.399-.0185a59.7327,59.7327,0,0,0,14.1267-1.3573c11.1847-2.6729,19.8146-8.61,23.3584-19.98A39.8737,39.8737,0,0,0,100.5479,105.4624ZM37.0155,62.6059c5.1467.08,10.2949.0325,15.4431.0325q6.8769,0,13.7538,0c5.05.0061,7.8536,2.0259,9.0719,6.85a22.6067,22.6067,0,0,1-.3621,12.1541c-1.1149,3.7307-3.6766,5.7921-7.6038,5.8678-5.5474.105-11.0971.1034-16.6456.125-4.5846.0186-9.17-.037-13.7538.0309-1.2554.0186-1.643-.34-1.6329-1.6182q.0857-10.8585-.0039-21.717C35.27,62.9626,35.652,62.5859,37.0155,62.6059Zm42.6419,59.6168c-.6609,8.238-4.9112,12.3609-13.1763,12.608-4.6645.139-9.3367.0247-14.0055.0247v.0139c-5.1521,0-10.3049-.0494-15.4554.0324-1.3693.0216-1.7472-.3536-1.7376-1.7263q.0909-13.2813.0031-26.5641c-.0081-1.3326.3073-1.7866,1.7194-1.7789,10.0621.06,20.1254-.0463,30.1863.0587,7.2243.0756,11.9946,5.2177,12.5077,13.2318A28.6246,28.6246,0,0,1,79.6574,122.2227Z"/><path class="cls-1" d="M189.37,102.1471c-2.2337-10.9959-7.0368-20.34-17.1811-26.0777-8.5515-4.8363-17.9187-5.4755-27.4045-4.512-11.38,1.1566-21.0325,5.8354-27.7627,15.3983-8.0416,11.4268-10.5594,24.2278-8.1169,37.85,2.444,13.6318,9.6247,24.0642,22.9245,29.0332a55.65,55.65,0,0,0,38.7637.2116c12.0278-4.2279,18.3878-13.0064,18.7808-24.793.029-.8662.5069-1.9317-1.2044-1.9085-5.7142.0787-11.4306.037-17.1463.0231-.8157-.0031-1.28.13-1.42,1.1334-.6725,4.8085-3.7079,7.6868-8.047,9.3283a27.0228,27.0228,0,0,1-12.5956,1.4129c-10.35-1.118-15.984-7.0861-16.8379-17.4474-.1428-1.731.3892-2,1.9179-1.99,9.0159.0586,18.0322.0293,27.0482.0293s18.0326-.04,27.0481.0355c1.6345.0124,2.2368-.4,2.2564-2.1093A73.6976,73.6976,0,0,0,189.37,102.1471Zm-22.5061,2.7038c-5.4686.0278-10.9369.0155-16.4051.0155-5.6292,0-11.2584-.0077-16.8877.0077-1.0492.0031-1.7719.1451-1.41-1.4978a19.8923,19.8923,0,0,1,26.3683-14.5722c6.7082,2.4459,9.6143,9.4842,10.0795,14.92C168.7455,105.32,167.62,104.8478,166.8643,104.8509Z"/></svg>