<svg id="Layer_1" data-name="Layer 1" xmlns="http://www.w3.org/2000/svg" viewBox="0 0 200 200"><defs><style>.cls-1{fill:#343434;}</style></defs><path class="cls-1" d="M100,53.9506c14.9982,0,16.7739.0585,22.698.3294a31.0305,31.0305,0,0,1,10.43,1.9329,18.6114,18.6114,0,0,1,10.6607,10.6608,31.092,31.092,0,0,1,1.9329,10.4284c.271,5.9241.3279,7.7.3279,22.7,0,14.9963-.0569,16.7737-.3279,22.6961a31.1139,31.1139,0,0,1-1.9329,10.43,18.6147,18.6147,0,0,1-10.6607,10.6592,31.0238,31.0238,0,0,1-10.43,1.9346c-5.9224.2691-7.7.3277-22.698.3277s-16.7754-.0586-22.6978-.3277a31.0238,31.0238,0,0,1-10.43-1.9346,18.6147,18.6147,0,0,1-10.6607-10.6592,31.1178,31.1178,0,0,1-1.9331-10.43c-.2708-5.9224-.3277-7.7-.3277-22.6961,0-15,.0569-16.7756.3277-22.7a31.0958,31.0958,0,0,1,1.9331-10.4284A18.6114,18.6114,0,0,1,66.8719,56.2129a31.0305,31.0305,0,0,1,10.43-1.9329C83.2262,54.0091,85,53.9506,100,53.9506m0-10.121c-15.2555,0-17.1667.0653-23.1592.3379a41.1745,41.1745,0,0,0-13.6338,2.6134,28.7043,28.7043,0,0,0-16.4277,16.426,41.1584,41.1584,0,0,0-2.61,13.6338c-.2741,5.9925-.3411,7.9054-.3411,23.1611,0,15.2523.067,17.1667.3411,23.1575a41.14,41.14,0,0,0,2.61,13.6338,28.7221,28.7221,0,0,0,16.4277,16.4294,41.2245,41.2245,0,0,0,13.6338,2.61c5.9925.2724,7.9037.3377,23.1592.3377s17.1669-.0653,23.1594-.3377a41.243,41.243,0,0,0,13.6338-2.61,28.7221,28.7221,0,0,0,16.4277-16.4294,41.1354,41.1354,0,0,0,2.61-13.6338c.2743-5.9908.3413-7.9052.3413-23.1575,0-15.2557-.067-17.1686-.3413-23.1611a41.1538,41.1538,0,0,0-2.61-13.6338,28.7043,28.7043,0,0,0-16.4277-16.426,41.1929,41.1929,0,0,0-13.6338-2.6134c-5.9925-.2726-7.9037-.3379-23.1594-.3379"/><path class="cls-1" d="M100,71.1558A28.8443,28.8443,0,1,0,128.8442,100,28.8441,28.8441,0,0,0,100,71.1558m0,47.5677A18.7235,18.7235,0,1,1,118.7217,100,18.7261,18.7261,0,0,1,100,118.7235"/><path class="cls-1" d="M136.7229,70.0172a6.74,6.74,0,1,1-6.74-6.7417,6.7394,6.7394,0,0,1,6.74,6.7417"/></svg>