<svg id="Layer_1" data-name="Layer 1" xmlns="http://www.w3.org/2000/svg" viewBox="0 0 200 200"><defs><style>.cls-1{fill:#343434;}</style></defs><path class="cls-1" d="M168.3329,72.1185s-1.3651-9.6083-5.5445-13.84c-5.3042-5.5537-11.2456-5.5831-13.9714-5.9074-19.5159-1.41-48.7875-1.41-48.7875-1.41h-.059s-29.2716,0-48.7875,1.41c-2.7258.3243-8.6672.3537-13.9714,5.9074-4.1794,4.2315-5.54,13.84-5.54,13.84a210.5283,210.5283,0,0,0-1.3969,22.5683v10.5811a210.5277,210.5277,0,0,0,1.3969,22.5682s1.3606,9.6083,5.54,13.8422c5.3042,5.5513,12.2729,5.379,15.3751,5.9595C63.7461,148.7082,100,149.0392,100,149.0392s29.3011-.043,48.817-1.4536c2.7258-.3265,8.6672-.356,13.9714-5.9073,4.1794-4.2339,5.5445-13.8422,5.5445-13.8422a211.1976,211.1976,0,0,0,1.3924-22.5682V94.6868A211.1982,211.1982,0,0,0,168.3329,72.1185ZM85.5978,118.0873V78.9058l37.678,19.661Z"/></svg>