<svg id="Layer_1" data-name="Layer 1" xmlns="http://www.w3.org/2000/svg" viewBox="0 0 66.66 68.94"><title>Patrones</title><polygon points="66.66 9.3 66.66 0 33.33 0 0 0 0 9.3 27.83 9.31 27.83 15.01 0 15.01 0 24.2 27.83 24.2 27.83 31.32 0 31.32 0 40.51 27.83 40.51 27.83 46.36 0 46.36 0 55.67 18 55.67 24.46 61.26 33.33 68.94 42.2 61.26 48.66 55.67 66.66 55.67 66.66 46.36 38.83 46.36 38.83 40.51 66.66 40.51 66.66 31.32 38.83 31.32 38.83 24.2 66.66 24.2 66.66 15.01 38.83 15.01 38.83 9.31 66.66 9.3"/></svg>