<svg id="Layer_1" data-name="Layer 1" xmlns="http://www.w3.org/2000/svg" viewBox="0 0 549.46 52.92"><title>Patrones</title><polygon points="207.12 0 203.83 0 150.91 52.92 154.2 52.92 207.12 0"/><polygon points="201 0 197.71 0 144.79 52.92 148.08 52.92 201 0"/><polygon points="194.88 0 191.59 0 138.67 52.92 141.96 52.92 194.88 0"/><polygon points="219.36 0 216.07 0 163.15 52.92 166.44 52.92 219.36 0"/><polygon points="225.48 0 222.19 0 169.27 52.92 172.56 52.92 225.48 0"/><polygon points="213.24 0 209.95 0 157.03 52.92 160.32 52.92 213.24 0"/><polygon points="170.4 0 167.11 0 114.19 52.92 117.48 52.92 170.4 0"/><polygon points="188.76 0 185.47 0 132.55 52.92 135.84 52.92 188.76 0"/><polygon points="158.16 0 154.87 0 101.95 52.92 105.24 52.92 158.16 0"/><polygon points="182.64 0 179.35 0 126.43 52.92 129.72 52.92 182.64 0"/><polygon points="176.52 0 173.23 0 120.31 52.92 123.6 52.92 176.52 0"/><polygon points="164.28 0 160.99 0 108.07 52.92 111.36 52.92 164.28 0"/><polygon points="286.68 0 283.39 0 230.47 52.92 233.76 52.92 286.68 0"/><polygon points="280.56 0 277.27 0 224.35 52.92 227.64 52.92 280.56 0"/><polygon points="268.32 0 265.03 0 212.11 52.92 215.4 52.92 268.32 0"/><polygon points="274.44 0 271.15 0 218.23 52.92 221.52 52.92 274.44 0"/><polygon points="231.6 0 228.31 0 175.39 52.92 178.68 52.92 231.6 0"/><polygon points="292.8 0 289.51 0 236.59 52.92 239.88 52.92 292.8 0"/><polygon points="298.92 0 295.63 0 242.71 52.92 246 52.92 298.92 0"/><polygon points="262.2 0 258.91 0 205.99 52.92 209.28 52.92 262.2 0"/><polygon points="237.72 0 234.43 0 181.51 52.92 184.8 52.92 237.72 0"/><polygon points="243.84 0 240.55 0 187.63 52.92 190.92 52.92 243.84 0"/><polygon points="256.08 0 252.79 0 199.87 52.92 203.16 52.92 256.08 0"/><polygon points="249.96 0 246.67 0 193.75 52.92 197.04 52.92 249.96 0"/><polygon points="50.83 0 0 50.83 0 52.92 1.2 52.92 54.12 0 50.83 0"/><polygon points="48 0 44.71 0 0 44.71 0 48 48 0"/><polygon points="60.24 0 56.95 0 4.03 52.92 7.32 52.92 60.24 0"/><polygon points="41.88 0 38.59 0 0 38.59 0 41.88 41.88 0"/><polygon points="66.36 0 63.07 0 10.15 52.92 13.44 52.92 66.36 0"/><polygon points="72.48 0 69.19 0 16.27 52.92 19.56 52.92 72.48 0"/><polygon points="35.76 0 32.47 0 0 32.47 0 35.76 35.76 0"/><polygon points="17.4 0 14.11 0 0 14.11 0 17.4 17.4 0"/><polygon points="11.28 0 7.99 0 0 7.99 0 11.28 11.28 0"/><polygon points="305.04 0 301.75 0 248.83 52.92 252.12 52.92 305.04 0"/><polygon points="29.64 0 26.35 0 0 26.35 0 29.64 29.64 0"/><polygon points="23.52 0 20.23 0 0 20.23 0 23.52 23.52 0"/><polygon points="78.6 0 75.31 0 22.39 52.92 25.68 52.92 78.6 0"/><polygon points="139.8 0 136.51 0 83.59 52.92 86.88 52.92 139.8 0"/><polygon points="121.44 0 118.15 0 65.23 52.92 68.52 52.92 121.44 0"/><polygon points="133.68 0 130.39 0 77.47 52.92 80.76 52.92 133.68 0"/><polygon points="127.56 0 124.27 0 71.35 52.92 74.64 52.92 127.56 0"/><polygon points="84.72 0 81.43 0 28.51 52.92 31.8 52.92 84.72 0"/><polygon points="145.92 0 142.63 0 89.71 52.92 93 52.92 145.92 0"/><polygon points="152.04 0 148.75 0 95.83 52.92 99.12 52.92 152.04 0"/><polygon points="96.96 0 93.67 0 40.75 52.92 44.04 52.92 96.96 0"/><polygon points="90.84 0 87.55 0 34.63 52.92 37.92 52.92 90.84 0"/><polygon points="103.08 0 99.79 0 46.87 52.92 50.16 52.92 103.08 0"/><polygon points="109.2 0 105.91 0 52.99 52.92 56.28 52.92 109.2 0"/><polygon points="115.32 0 112.03 0 59.11 52.92 62.4 52.92 115.32 0"/><polygon points="451.92 0 448.63 0 395.71 52.92 399 52.92 451.92 0"/><polygon points="519.24 0 515.95 0 463.03 52.92 466.32 52.92 519.24 0"/><polygon points="513.12 0 509.83 0 456.91 52.92 460.2 52.92 513.12 0"/><polygon points="525.36 0 522.07 0 469.15 52.92 472.44 52.92 525.36 0"/><polygon points="507 0 503.71 0 450.79 52.92 454.08 52.92 507 0"/><polygon points="537.6 0 534.31 0 481.39 52.92 484.68 52.92 537.6 0"/><polygon points="531.48 0 528.19 0 475.27 52.92 478.56 52.92 531.48 0"/><polygon points="494.76 0 491.47 0 438.55 52.92 441.84 52.92 494.76 0"/><polygon points="482.52 0 479.23 0 426.31 52.92 429.6 52.92 482.52 0"/><polygon points="476.4 0 473.11 0 420.19 52.92 423.48 52.92 476.4 0"/><polygon points="488.64 0 485.35 0 432.43 52.92 435.72 52.92 488.64 0"/><polygon points="500.88 0 497.59 0 444.67 52.92 447.96 52.92 500.88 0"/><polygon points="543.72 0 540.43 0 487.51 52.92 490.8 52.92 543.72 0"/><polygon points="549.46 37.11 549.46 33.81 530.35 52.92 533.64 52.92 549.46 37.11"/><polygon points="470.28 0 466.99 0 414.07 52.92 417.36 52.92 470.28 0"/><polygon points="549.46 43.23 549.46 39.93 536.47 52.92 539.76 52.92 549.46 43.23"/><polygon points="549.46 49.34 549.46 46.05 542.59 52.92 545.88 52.92 549.46 49.34"/><polygon points="5.16 0 0 0 0 5.16 5.16 0"/><polygon points="548.71 52.92 549.46 52.92 549.46 52.17 548.71 52.92"/><polygon points="549.46 12.63 549.46 9.33 505.87 52.92 509.16 52.92 549.46 12.63"/><polygon points="549.46 6.5 549.46 3.21 499.75 52.92 503.04 52.92 549.46 6.5"/><polygon points="549.46 30.99 549.46 27.69 524.23 52.92 527.52 52.92 549.46 30.99"/><polygon points="549.46 0.39 549.46 0 546.55 0 493.63 52.92 496.92 52.92 549.46 0.39"/><polygon points="549.46 18.75 549.46 15.45 511.99 52.92 515.28 52.92 549.46 18.75"/><polygon points="549.46 24.87 549.46 21.57 518.11 52.92 521.4 52.92 549.46 24.87"/><polygon points="390.72 0 387.43 0 334.51 52.92 337.8 52.92 390.72 0"/><polygon points="360.12 0 356.83 0 303.91 52.92 307.2 52.92 360.12 0"/><polygon points="354 0 350.71 0 297.79 52.92 301.08 52.92 354 0"/><polygon points="366.24 0 362.95 0 310.03 52.92 313.32 52.92 366.24 0"/><polygon points="378.48 0 375.19 0 322.27 52.92 325.56 52.92 378.48 0"/><polygon points="372.36 0 369.07 0 316.15 52.92 319.44 52.92 372.36 0"/><polygon points="347.88 0 344.59 0 291.67 52.92 294.96 52.92 347.88 0"/><polygon points="317.28 0 313.99 0 261.07 52.92 264.36 52.92 317.28 0"/><polygon points="341.76 0 338.47 0 285.55 52.92 288.84 52.92 341.76 0"/><polygon points="384.6 0 381.31 0 328.39 52.92 331.68 52.92 384.6 0"/><polygon points="323.4 0 320.11 0 267.19 52.92 270.48 52.92 323.4 0"/><polygon points="329.52 0 326.23 0 273.31 52.92 276.6 52.92 329.52 0"/><polygon points="335.64 0 332.35 0 279.43 52.92 282.72 52.92 335.64 0"/><polygon points="433.56 0 430.27 0 377.35 52.92 380.64 52.92 433.56 0"/><polygon points="464.16 0 460.87 0 407.95 52.92 411.24 52.92 464.16 0"/><polygon points="311.16 0 307.87 0 254.95 52.92 258.24 52.92 311.16 0"/><polygon points="439.68 0 436.39 0 383.47 52.92 386.76 52.92 439.68 0"/><polygon points="445.8 0 442.51 0 389.59 52.92 392.88 52.92 445.8 0"/><polygon points="458.04 0 454.75 0 401.83 52.92 405.12 52.92 458.04 0"/><polygon points="427.44 0 424.15 0 371.23 52.92 374.52 52.92 427.44 0"/><polygon points="421.32 0 418.03 0 365.11 52.92 368.4 52.92 421.32 0"/><polygon points="396.84 0 393.55 0 340.63 52.92 343.92 52.92 396.84 0"/><polygon points="402.96 0 399.67 0 346.75 52.92 350.04 52.92 402.96 0"/><polygon points="409.08 0 405.79 0 352.87 52.92 356.16 52.92 409.08 0"/><polygon points="415.2 0 411.91 0 358.99 52.92 362.28 52.92 415.2 0"/></svg>