<svg id="Layer_1" data-name="Layer 1" xmlns="http://www.w3.org/2000/svg" viewBox="0 0 317.52 78.84"><title>Patrones</title><polygon points="134.59 0 133.19 0 54.35 78.84 55.75 78.84 134.59 0"/><polygon points="128.95 0 127.55 0 48.71 78.84 50.11 78.84 128.95 0"/><polygon points="151.51 0 150.11 0 71.27 78.84 72.67 78.84 151.51 0"/><polygon points="137.41 0 136.01 0 57.17 78.84 58.57 78.84 137.41 0"/><polygon points="140.23 0 138.83 0 59.99 78.84 61.39 78.84 140.23 0"/><polygon points="145.87 0 144.47 0 65.63 78.84 67.03 78.84 145.87 0"/><polygon points="148.69 0 147.29 0 68.45 78.84 69.85 78.84 148.69 0"/><polygon points="143.05 0 141.65 0 62.81 78.84 64.21 78.84 143.05 0"/><polygon points="202.27 0 200.87 0 122.03 78.84 123.43 78.84 202.27 0"/><polygon points="126.13 0 124.73 0 45.89 78.84 47.29 78.84 126.13 0"/><polygon points="109.21 0 107.81 0 28.97 78.84 30.37 78.84 109.21 0"/><polygon points="106.39 0 104.99 0 26.15 78.84 27.55 78.84 106.39 0"/><polygon points="112.03 0 110.63 0 31.79 78.84 33.19 78.84 112.03 0"/><polygon points="123.31 0 121.91 0 43.07 78.84 44.47 78.84 123.31 0"/><polygon points="114.85 0 113.45 0 34.61 78.84 36.01 78.84 114.85 0"/><polygon points="117.67 0 116.27 0 37.43 78.84 38.83 78.84 117.67 0"/><polygon points="193.81 0 192.41 0 113.57 78.84 114.97 78.84 193.81 0"/><polygon points="179.71 0 178.31 0 99.47 78.84 100.87 78.84 179.71 0"/><polygon points="185.35 0 183.95 0 105.11 78.84 106.51 78.84 185.35 0"/><polygon points="188.17 0 186.77 0 107.93 78.84 109.33 78.84 188.17 0"/><polygon points="182.53 0 181.13 0 102.29 78.84 103.69 78.84 182.53 0"/><polygon points="190.99 0 189.59 0 110.75 78.84 112.15 78.84 190.99 0"/><polygon points="199.45 0 198.05 0 119.21 78.84 120.61 78.84 199.45 0"/><polygon points="196.63 0 195.23 0 116.39 78.84 117.79 78.84 196.63 0"/><polygon points="103.57 0 102.17 0 23.33 78.84 24.73 78.84 103.57 0"/><polygon points="168.43 0 167.03 0 88.19 78.84 89.59 78.84 168.43 0"/><polygon points="165.61 0 164.21 0 85.37 78.84 86.77 78.84 165.61 0"/><polygon points="159.97 0 158.57 0 79.73 78.84 81.13 78.84 159.97 0"/><polygon points="162.79 0 161.39 0 82.55 78.84 83.95 78.84 162.79 0"/><polygon points="157.15 0 155.75 0 76.91 78.84 78.31 78.84 157.15 0"/><polygon points="176.89 0 175.49 0 96.65 78.84 98.05 78.84 176.89 0"/><polygon points="174.07 0 172.67 0 93.83 78.84 95.23 78.84 174.07 0"/><polygon points="154.33 0 152.93 0 74.09 78.84 75.49 78.84 154.33 0"/><polygon points="171.25 0 169.85 0 91.01 78.84 92.41 78.84 171.25 0"/><polygon points="131.77 0 130.37 0 51.53 78.84 52.93 78.84 131.77 0"/><polygon points="33.07 0 31.67 0 0 31.67 0 33.07 33.07 0"/><polygon points="27.43 0 26.03 0 0 26.03 0 27.43 27.43 0"/><polygon points="30.25 0 28.85 0 0 28.85 0 30.25 30.25 0"/><polygon points="49.99 0 48.59 0 0 48.59 0 49.99 49.99 0"/><polygon points="35.89 0 34.49 0 0 34.49 0 35.89 35.89 0"/><polygon points="47.17 0 45.77 0 0 45.77 0 47.17 47.17 0"/><polygon points="100.75 0 99.35 0 20.51 78.84 21.91 78.84 100.75 0"/><polygon points="41.53 0 40.13 0 0 40.13 0 41.53 41.53 0"/><polygon points="38.71 0 37.31 0 0 37.31 0 38.71 38.71 0"/><polygon points="13.33 0 11.93 0 0 11.93 0 13.33 13.33 0"/><polygon points="0 3.47 0 4.87 4.87 0 3.47 0 0 3.47"/><polygon points="10.51 0 9.11 0 0 9.11 0 10.51 10.51 0"/><polygon points="24.61 0 23.21 0 0 23.21 0 24.61 24.61 0"/><polygon points="7.69 0 6.29 0 0 6.29 0 7.69 7.69 0"/><polygon points="16.15 0 14.75 0 0 14.75 0 16.15 16.15 0"/><polygon points="21.79 0 20.39 0 0 20.39 0 21.79 21.79 0"/><polygon points="18.97 0 17.57 0 0 17.57 0 18.97 18.97 0"/><polygon points="44.35 0 42.95 0 0 42.95 0 44.35 44.35 0"/><polygon points="86.65 0 85.25 0 6.41 78.84 7.81 78.84 86.65 0"/><polygon points="83.83 0 82.43 0 3.59 78.84 4.99 78.84 83.83 0"/><polygon points="89.47 0 88.07 0 9.23 78.84 10.63 78.84 89.47 0"/><polygon points="81.01 0 79.61 0 0.77 78.84 2.17 78.84 81.01 0"/><polygon points="78.19 0 76.79 0 0 76.79 0 78.19 78.19 0"/><polygon points="92.29 0 90.89 0 12.05 78.84 13.45 78.84 92.29 0"/><polygon points="97.93 0 96.53 0 17.69 78.84 19.09 78.84 97.93 0"/><polygon points="95.11 0 93.71 0 14.87 78.84 16.27 78.84 95.11 0"/><polygon points="69.73 0 68.33 0 0 68.33 0 69.73 69.73 0"/><polygon points="64.09 0 62.69 0 0 62.69 0 64.09 64.09 0"/><polygon points="58.45 0 57.05 0 0 57.05 0 58.45 58.45 0"/><polygon points="61.27 0 59.87 0 0 59.87 0 61.27 61.27 0"/><polygon points="55.63 0 54.23 0 0 54.23 0 55.63 55.63 0"/><polygon points="66.91 0 65.51 0 0 65.51 0 66.91 66.91 0"/><polygon points="72.55 0 71.15 0 0 71.15 0 72.55 72.55 0"/><polygon points="75.37 0 73.97 0 0 73.97 0 75.37 75.37 0"/><polygon points="52.81 0 51.41 0 0 51.41 0 52.81 52.81 0"/><polygon points="120.49 0 119.09 0 40.25 78.84 41.65 78.84 120.49 0"/><polygon points="317.52 22.93 317.52 21.53 260.21 78.84 261.61 78.84 317.52 22.93"/><polygon points="317.52 17.29 317.52 15.89 254.57 78.84 255.97 78.84 317.52 17.29"/><polygon points="317.52 20.11 317.52 18.71 257.39 78.84 258.79 78.84 317.52 20.11"/><polygon points="317.52 14.47 317.52 13.07 251.75 78.84 253.15 78.84 317.52 14.47"/><polygon points="317.52 34.21 317.52 32.81 271.49 78.84 272.89 78.84 317.52 34.21"/><polygon points="317.52 31.39 317.52 29.99 268.67 78.84 270.07 78.84 317.52 31.39"/><polygon points="317.52 11.65 317.52 10.25 248.93 78.84 250.33 78.84 317.52 11.65"/><polygon points="317.52 25.75 317.52 24.35 263.03 78.84 264.43 78.84 317.52 25.75"/><polygon points="317.52 28.57 317.52 27.17 265.85 78.84 267.25 78.84 317.52 28.57"/><polygon points="312.25 0 310.85 0 232.01 78.84 233.41 78.84 312.25 0"/><polygon points="309.43 0 308.03 0 229.19 78.84 230.59 78.84 309.43 0"/><polygon points="315.07 0 313.67 0 234.83 78.84 236.23 78.84 315.07 0"/><polygon points="306.61 0 305.21 0 226.37 78.84 227.77 78.84 306.61 0"/><polygon points="317.52 8.83 317.52 7.43 246.11 78.84 247.51 78.84 317.52 8.83"/><polygon points="317.52 6.01 317.52 4.61 243.29 78.84 244.69 78.84 317.52 6.01"/><polygon points="317.52 0.37 317.52 0 316.49 0 237.65 78.84 239.05 78.84 317.52 0.37"/><polygon points="317.52 3.19 317.52 1.79 240.47 78.84 241.87 78.84 317.52 3.19"/><polygon points="317.52 56.77 317.52 55.37 294.05 78.84 295.45 78.84 317.52 56.77"/><polygon points="317.52 73.69 317.52 72.29 310.97 78.84 312.37 78.84 317.52 73.69"/><polygon points="317.52 68.05 317.52 66.65 305.33 78.84 306.73 78.84 317.52 68.05"/><polygon points="317.52 70.87 317.52 69.47 308.15 78.84 309.55 78.84 317.52 70.87"/><polygon points="317.52 62.41 317.52 61.01 299.69 78.84 301.09 78.84 317.52 62.41"/><polygon points="317.52 65.23 317.52 63.83 302.51 78.84 303.91 78.84 317.52 65.23"/><polygon points="317.52 76.51 317.52 75.11 313.79 78.84 315.19 78.84 317.52 76.51"/><polygon points="317.52 37.03 317.52 35.63 274.31 78.84 275.71 78.84 317.52 37.03"/><polygon points="2.05 0 0 0 0 2.05 2.05 0"/><polygon points="316.61 78.84 317.52 78.84 317.52 77.93 316.61 78.84"/><polygon points="317.52 48.31 317.52 46.91 285.59 78.84 286.99 78.84 317.52 48.31"/><polygon points="317.52 42.67 317.52 41.27 279.95 78.84 281.35 78.84 317.52 42.67"/><polygon points="317.52 45.49 317.52 44.09 282.77 78.84 284.17 78.84 317.52 45.49"/><polygon points="317.52 39.85 317.52 38.45 277.13 78.84 278.53 78.84 317.52 39.85"/><polygon points="317.52 59.59 317.52 58.19 296.87 78.84 298.27 78.84 317.52 59.59"/><polygon points="303.79 0 302.39 0 223.55 78.84 224.95 78.84 303.79 0"/><polygon points="205.09 0 203.69 0 124.85 78.84 126.25 78.84 205.09 0"/><polygon points="317.52 53.95 317.52 52.55 291.23 78.84 292.63 78.84 317.52 53.95"/><polygon points="317.52 51.13 317.52 49.73 288.41 78.84 289.81 78.84 317.52 51.13"/><polygon points="300.97 0 299.57 0 220.73 78.84 222.13 78.84 300.97 0"/><polygon points="230.47 0 229.07 0 150.23 78.84 151.63 78.84 230.47 0"/><polygon points="233.29 0 231.89 0 153.05 78.84 154.45 78.84 233.29 0"/><polygon points="241.75 0 240.35 0 161.51 78.84 162.91 78.84 241.75 0"/><polygon points="236.11 0 234.71 0 155.87 78.84 157.27 78.84 236.11 0"/><polygon points="250.21 0 248.81 0 169.97 78.84 171.37 78.84 250.21 0"/><polygon points="244.57 0 243.17 0 164.33 78.84 165.73 78.84 244.57 0"/><polygon points="247.39 0 245.99 0 167.15 78.84 168.55 78.84 247.39 0"/><polygon points="224.83 0 223.43 0 144.59 78.84 145.99 78.84 224.83 0"/><polygon points="216.37 0 214.97 0 136.13 78.84 137.53 78.84 216.37 0"/><polygon points="213.55 0 212.15 0 133.31 78.84 134.71 78.84 213.55 0"/><polygon points="210.73 0 209.33 0 130.49 78.84 131.89 78.84 210.73 0"/><polygon points="207.91 0 206.51 0 127.67 78.84 129.07 78.84 207.91 0"/><polygon points="219.19 0 217.79 0 138.95 78.84 140.35 78.84 219.19 0"/><polygon points="227.65 0 226.25 0 147.41 78.84 148.81 78.84 227.65 0"/><polygon points="253.03 0 251.63 0 172.79 78.84 174.19 78.84 253.03 0"/><polygon points="222.01 0 220.61 0 141.77 78.84 143.17 78.84 222.01 0"/><polygon points="238.93 0 237.53 0 158.69 78.84 160.09 78.84 238.93 0"/><polygon points="286.87 0 285.47 0 206.63 78.84 208.03 78.84 286.87 0"/><polygon points="278.41 0 277.01 0 198.17 78.84 199.57 78.84 278.41 0"/><polygon points="284.05 0 282.65 0 203.81 78.84 205.21 78.84 284.05 0"/><polygon points="281.23 0 279.83 0 200.99 78.84 202.39 78.84 281.23 0"/><polygon points="289.69 0 288.29 0 209.45 78.84 210.85 78.84 289.69 0"/><polygon points="292.51 0 291.11 0 212.27 78.84 213.67 78.84 292.51 0"/><polygon points="298.15 0 296.75 0 217.91 78.84 219.31 78.84 298.15 0"/><polygon points="295.33 0 293.93 0 215.09 78.84 216.49 78.84 295.33 0"/><polygon points="272.77 0 271.37 0 192.53 78.84 193.93 78.84 272.77 0"/><polygon points="264.31 0 262.91 0 184.07 78.84 185.47 78.84 264.31 0"/><polygon points="275.59 0 274.19 0 195.35 78.84 196.75 78.84 275.59 0"/><polygon points="258.67 0 257.27 0 178.43 78.84 179.83 78.84 258.67 0"/><polygon points="261.49 0 260.09 0 181.25 78.84 182.65 78.84 261.49 0"/><polygon points="267.13 0 265.73 0 186.89 78.84 188.29 78.84 267.13 0"/><polygon points="255.85 0 254.45 0 175.61 78.84 177.01 78.84 255.85 0"/><polygon points="269.95 0 268.55 0 189.71 78.84 191.11 78.84 269.95 0"/></svg>