<svg id="Layer_1" data-name="Layer 1" xmlns="http://www.w3.org/2000/svg" viewBox="0 0 144.72 289.73"><defs><style>.cls-1{fill:#989898;}</style></defs><title>Patrones</title><polygon class="cls-1" points="144.72 121.69 144.72 148 48.24 244.48 48.24 218.18 144.72 121.69"/><polygon class="cls-1" points="98.03 289.73 71.72 289.73 144.72 216.74 144.72 243.04 98.03 289.73"/><polygon class="cls-1" points="144.72 74.17 144.72 100.48 48.24 196.96 48.24 170.66 144.72 74.17"/><polygon class="cls-1" points="48.24 6.88 48.24 0 55.12 0 48.24 6.88"/><polygon class="cls-1" points="144.72 169.22 144.72 195.52 50.51 289.73 48.24 289.73 48.24 265.69 144.72 169.22"/><polygon class="cls-1" points="144.72 264.25 144.72 289.73 119.25 289.73 144.72 264.25"/><polygon class="cls-1" points="76.33 0 102.64 0 48.24 54.4 48.24 28.09 76.33 0"/><polygon class="cls-1" points="123.86 0 144.72 0 144.72 5.44 48.24 101.92 48.24 75.61 123.86 0"/><polygon class="cls-1" points="144.72 26.66 144.72 52.96 48.24 149.44 48.24 123.14 144.72 26.66"/><polygon points="0 121.69 0 148 96.48 244.48 96.48 218.18 0 121.69"/><polygon points="46.69 289.73 73 289.73 0 216.74 0 243.04 46.69 289.73"/><polygon points="0 74.17 0 100.48 96.48 196.96 96.48 170.66 0 74.17"/><polygon points="96.48 6.88 96.48 0 89.6 0 96.48 6.88"/><polygon points="0 169.22 0 195.52 94.21 289.73 96.48 289.73 96.48 265.69 0 169.22"/><polygon points="0 264.25 0 289.73 25.48 289.73 0 264.25"/><polygon points="68.39 0 42.08 0 96.48 54.4 96.48 28.09 68.39 0"/><polygon points="20.86 0 0 0 0 5.44 96.48 101.92 96.48 75.61 20.86 0"/><polygon points="0 26.66 0 52.96 96.48 149.44 96.48 123.14 0 26.66"/></svg>