<svg id="Layer_1" data-name="Layer 1" xmlns="http://www.w3.org/2000/svg" viewBox="0 0 362.36 28.35"><title>Patrones</title><path d="M62.77,3,89.62,25.35H35.16L8.3,3H62.77m1.08-3H0L34.07,28.35H97.92L63.85,0Z"/><polygon points="110.28 0 132.96 0 167.03 28.35 110.28 28.35 103.18 28.35 69.11 0 110.28 0"/><polygon points="235.5 28.35 258.18 28.35 292.25 0 235.5 0 228.4 0 194.33 28.35 235.5 28.35"/><path d="M354.06,3,327.21,25.35H272.74L299.59,3h54.47m8.3-3H298.51L264.44,28.35h63.85L362.36,0Z"/><path d="M213.05,3,186.19,25.35h-12L147.31,3h65.74m8.3-3H139l34.07,28.35h14.2L221.35,0Z"/></svg>