<svg id="Layer_1" data-name="Layer 1" xmlns="http://www.w3.org/2000/svg" viewBox="0 0 96 201"><defs><style>.cls-1{fill:#fff;}</style></defs><title>Patrones</title><polygon class="cls-1" points="95.45 29.43 48 62.97 0.55 29.43 0.55 0.52 48 34.07 95.45 0.52 95.45 29.43"/><path class="cls-1" d="M92.45,52.15V73.71L48,105.13,3.55,73.71V52.15L46.27,82.36,48,83.58l1.73-1.22L92.45,52.15m3-5.79L48,79.91.55,46.36v28.9L48,108.81,95.45,75.26V46.36Z"/><polygon class="cls-1" points="95.45 121.09 48 154.64 0.55 121.09 0.55 92.19 48 125.74 95.45 92.19 95.45 121.09"/><path class="cls-1" d="M92.45,143.82v21.55L48,196.8,3.55,165.37V143.82L46.27,174,48,175.25,49.73,174l42.72-30.2m3-5.79L48,171.57.55,138v28.9L48,200.48l47.45-33.55V138Z"/></svg>