<svg id="Layer_1" data-name="Layer 1" xmlns="http://www.w3.org/2000/svg" viewBox="0 0 91.91 66.92"><title>Patrones</title><polygon points="22.76 48.7 11.24 48.7 11.24 55.75 20.09 55.75 15.86 66.92 0 66.92 0 0 41.2 0 36.97 11.17 11.24 11.17 11.24 18.04 34.37 18.04 30.18 29.09 11.24 29.09 11.24 37.65 26.94 37.65 22.76 48.7"/><path d="M45.88,0,19.21,66.92H72.65ZM34.74,57.53,45.89,27.42,57.12,57.53Z"/><polygon points="61.72 29.09 80.67 29.09 80.67 37.65 64.97 37.65 69.15 48.7 80.67 48.7 80.67 55.75 71.82 55.75 76.05 66.92 91.91 66.92 91.91 0 50.71 0 54.94 11.17 80.67 11.17 80.67 18.04 57.54 18.04 61.72 29.09"/></svg>